<svg width="38" height="31" viewBox="0 0 38 31" fill="none" xmlns="http://www.w3.org/2000/svg">
<g clip-path="url(#clip0_130_45)">
<path d="M33.6031 0.494751H4.57743C2.58192 0.494751 0.949219 2.1566 0.949219 4.18775V26.3458C0.949219 28.3769 2.58192 30.0388 4.57743 30.0388H33.6031C35.5987 30.0388 37.2313 28.3769 37.2313 26.3458V4.18775C37.2313 2.1566 35.5987 0.494751 33.6031 0.494751ZM32.8775 8.34238L21.0132 15.8946C19.8341 16.6517 18.3465 16.6517 17.1673 15.8946L5.30308 8.34238C5.12117 8.23844 4.96188 8.09802 4.83483 7.9296C4.70779 7.76119 4.61564 7.56829 4.56396 7.36257C4.51229 7.15686 4.50215 6.94261 4.53418 6.7328C4.5662 6.52298 4.63972 6.32196 4.75028 6.14191C4.86085 5.96185 5.00615 5.8065 5.17741 5.68526C5.34866 5.56401 5.5423 5.4794 5.74662 5.43654C5.95093 5.39368 6.16166 5.39346 6.36606 5.43589C6.57046 5.47833 6.76427 5.56253 6.93577 5.68342L19.0903 13.4203L31.2448 5.68342C31.4163 5.56253 31.6101 5.47833 31.8145 5.43589C32.0189 5.39346 32.2296 5.39368 32.434 5.43654C32.6383 5.4794 32.8319 5.56401 33.0032 5.68526C33.1744 5.8065 33.3197 5.96185 33.4303 6.14191C33.5408 6.32196 33.6144 6.52298 33.6464 6.7328C33.6784 6.94261 33.6683 7.15686 33.6166 7.36257C33.5649 7.56829 33.4728 7.76119 33.3457 7.9296C33.2187 8.09802 33.0594 8.23844 32.8775 8.34238Z" fill="#6610F2"/>
</g>
<defs>
<clipPath id="clip0_130_45">
<rect width="38" height="31" fill="white"/>
</clipPath>
</defs>
</svg>
