<svg width="650" height="56" viewBox="0 0 650 56" fill="none" xmlns="http://www.w3.org/2000/svg">
<path fill-rule="evenodd" clip-rule="evenodd" d="M58.6872 55.2054H72.0996L41.3943 0H30.1704L0 55.2054H12.3833L19.016 42.4425H52.0545L58.6872 55.2054ZM2.82484 53.5304L31.1644 1.67509H40.4094L40.4093 1.67492H31.1637L2.82409 53.5304H2.82484ZM53.0718 40.7677L59.7044 53.5304H59.7049L53.0723 40.7677H53.0718ZM21.6174 34.1349H49.5544L35.5859 7.60484L35.5862 7.6043L49.555 34.135H21.6174L21.6174 34.1349ZM24.3915 32.4599L35.5855 11.1993L46.7796 32.4599H24.3915ZM126.109 52.7599L126.124 52.7462L126.139 52.7321C128.144 50.818 128.868 47.5098 128.868 43.4809V37.0661L117.479 34.9306V45.4238H91.0819V18.9266H117.479V28.3658L128.868 26.515V25.0903C128.868 22.2478 128.775 19.8971 128.583 18.057C128.397 16.283 128.1 14.7706 127.571 13.7611L127.569 13.7565C125.827 10.455 121.806 9.24556 116.742 9.24556H91.7184C87.6315 9.24556 84.2961 9.93421 82.3213 11.8193L82.3072 11.8328L82.2934 11.8465C80.3787 13.7612 79.6924 17.0551 79.6924 21.0705V43.4809C79.6924 45.576 79.8744 47.4052 80.2749 48.9309C80.6737 50.4499 81.3178 51.7764 82.3226 52.7334L82.3367 52.7468L82.3511 52.7599C84.324 54.5534 87.6435 55.2054 91.7184 55.2054H116.742C120.817 55.2054 124.136 54.5534 126.109 52.7599ZM89.4076 47.0987H119.154V36.9487L119.154 36.9489V47.0989H89.4076V47.0987ZM119.154 26.3967V17.2518H119.154V26.3966L119.154 26.3967ZM116.742 10.9205C118.637 10.9205 120.264 11.0968 121.62 11.4494C120.264 11.0969 118.638 10.9206 116.742 10.9206H91.719C87.6992 10.9206 84.9523 11.6241 83.4784 13.031C82.0715 14.438 81.368 17.1178 81.368 21.0707V43.4811C81.368 47.5009 82.0715 50.1808 83.4784 51.5207C84.0253 52.0179 84.7475 52.4229 85.6449 52.7356C84.7472 52.4229 84.0248 52.0178 83.4778 51.5205C82.0708 50.1806 81.3674 47.5007 81.3674 43.4809V21.0705C81.3674 17.1177 82.0708 14.4378 83.4778 13.0309C84.9517 11.6239 87.6986 10.9205 91.7184 10.9205H116.742ZM190.548 52.7599L190.563 52.7462L190.577 52.7321C192.583 50.818 193.307 47.5098 193.307 43.4809V9.24556H181.817V45.4238H154.013V9.24556H142.624V43.4809C142.624 47.5098 143.348 50.818 145.353 52.7321L145.368 52.7462L145.383 52.7599C147.356 54.5534 150.675 55.2054 154.75 55.2054H181.18C185.255 55.2054 188.575 54.5534 190.548 52.7599ZM152.339 47.0987H183.492V10.9205H191.632V10.9206H183.492V47.0989H152.339V47.0987ZM152.338 10.9206V10.9205H144.299V43.4809C144.299 47.4337 145.036 50.1136 146.509 51.5205C146.909 51.8834 147.401 52.1972 147.987 52.4618C147.401 52.1973 146.909 51.8835 146.51 51.5207C145.036 50.1138 144.299 47.4339 144.299 43.4811V10.9206H152.338ZM233.504 18.9266H253.704V9.24556H202.015V18.9266H222.115V55.2054H233.504V18.9266ZM203.691 17.2517V10.9206H252.029V10.9205H203.69V17.2517H203.691ZM223.789 53.5304V17.2518H223.79V53.5304H223.789ZM262.452 9.24556V55.2054H309.116V45.6248H273.842V36.2118H294.845V26.5307H273.842V18.9266H308.714V9.24556H262.452ZM264.128 53.5306V10.9206L307.039 10.9205H264.127V53.5304L264.128 53.5306ZM385.48 42.4425L392.113 55.2054H405.525L374.82 0H363.596L333.426 55.2054H345.809L352.442 42.4425H385.48ZM336.25 53.5306L364.59 1.67509H373.835L373.835 1.67492H364.589L336.25 53.5304L336.25 53.5306ZM393.13 53.5304L386.498 40.7677L393.131 53.5306L393.13 53.5304ZM382.98 34.1349L355.043 34.135H382.981L382.98 34.1349ZM357.817 32.4599L369.011 11.1993L380.205 32.4599H357.817ZM426.553 26.5518L458.878 55.2054H466.716V9.24556H455.929V36.6472C455.929 37.4842 455.95 38.3131 455.992 39.1337C455.448 38.5752 454.884 38.0342 454.3 37.5105L422.566 9.24556H414.123V55.2054H424.91V27.1002C424.91 26.3893 424.894 25.6785 424.864 24.9678C425.395 25.5026 425.957 26.0298 426.551 26.5496L426.553 26.5518ZM458.307 44.5854C458.101 43.4672 457.941 42.3296 457.825 41.1726C457.678 39.6957 457.604 38.1873 457.604 36.6472V10.9205H465.041L457.605 10.9206V36.6474C457.605 39.3943 457.839 42.0407 458.308 44.5865C458.308 44.5862 458.308 44.5858 458.307 44.5854ZM427.657 25.2915C425.513 23.4155 423.838 21.4726 422.632 19.4627C422.632 19.4631 422.632 19.4635 422.632 19.4638C423.208 20.4227 423.89 21.3662 424.679 22.2946C425.543 23.3118 426.536 24.3107 427.656 25.2913L427.657 25.2915ZM421.928 10.9205L421.928 10.9206H415.799V53.5306L415.798 53.5304V10.9205H421.928ZM522.981 55.2054C527.056 55.2054 530.375 54.5534 532.348 52.7599L532.363 52.7462L532.378 52.7321C534.383 50.818 535.107 47.5098 535.107 43.4809V28.0382H506.332V37.2167H523.718V45.4238H493.402V18.9266H523.718V25.0739L535.107 23.0807V21.6735C535.107 17.4806 534.428 14.0728 532.547 12.0893C530.621 9.99323 527.185 9.24556 522.981 9.24556H494.139C490.097 9.24556 486.796 9.94265 484.769 11.794L484.755 11.8065L484.742 11.8193C482.736 13.7335 482.012 17.0416 482.012 21.0705V43.4809C482.012 47.5098 482.736 50.818 484.742 52.7321L484.756 52.7462L484.771 52.7599C486.744 54.5534 490.064 55.2054 494.139 55.2054H522.981ZM525.393 47.0987V35.5418L525.393 35.542V47.0989H491.727L525.393 47.0987ZM508.008 35.542V29.7132L533.432 29.7131H508.007V35.5418L508.008 35.542ZM525.393 23.0804V17.2517L525.393 17.2518V23.0806L525.393 23.0804ZM494.139 10.9205H522.981C523.24 10.9205 523.495 10.9235 523.744 10.9295C523.495 10.9235 523.241 10.9206 522.981 10.9206H494.139C494.139 10.9206 494.139 10.9205 494.139 10.9205ZM492.713 10.9535C489.518 11.1074 487.247 11.8 485.899 13.031C484.425 14.438 483.688 17.1178 483.688 21.0707V43.4811C483.688 47.4339 484.425 50.1138 485.899 51.5207C486.004 51.616 486.115 51.7081 486.232 51.7967C486.115 51.708 486.003 51.616 485.898 51.5205C484.424 50.1136 483.687 47.4337 483.687 43.4809V21.0705C483.687 17.1177 484.424 14.4378 485.898 13.0309C487.246 11.7998 489.518 11.1073 492.713 10.9535ZM549.556 9.24556V55.2054H594.109V45.4238H560.945V9.24556H549.556ZM551.232 53.5306V10.9206L559.271 10.9205H551.231V53.5304L551.232 53.5306ZM603.337 9.24556V55.2054H650V45.6248H614.726V36.2118H635.73V26.5307H614.726V18.9266H649.598V9.24556H603.337ZM605.012 53.5306V10.9206L647.923 10.9205H605.012V53.5304L605.012 53.5306Z" fill="url(#paint0_linear_2923_9)"/>
<defs>
<linearGradient id="paint0_linear_2923_9" x1="-57.6199" y1="2.28924" x2="-30.3849" y2="199.385" gradientUnits="userSpaceOnUse">
<stop stop-color="#5051FF"/>
<stop offset="0.5" stop-color="#973AE0"/>
<stop offset="1" stop-color="#B942CC"/>
</linearGradient>
</defs>
</svg>
