<svg width="35" height="32" viewBox="0 0 35 32" fill="none" xmlns="http://www.w3.org/2000/svg">
<g clip-path="url(#clip0_130_41)">
<path d="M13.6915 30.0787V20.4719H21.3001V30.0787C21.3001 31.1354 22.1561 32 23.2025 32H28.9087C29.9549 32 30.8109 31.1354 30.8109 30.0787V16.6292H34.0446C34.9195 16.6292 35.338 15.5341 34.6723 14.9577L18.7702 0.489943C18.0474 -0.163314 16.9441 -0.163314 16.2213 0.489943L0.319281 14.9577C-0.327453 15.5341 0.0720004 16.6292 0.946993 16.6292H4.18066V30.0787C4.18066 31.1354 5.03663 32 6.08282 32H11.7893C12.8355 32 13.6915 31.1354 13.6915 30.0787Z" fill="#6610F2"/>
</g>
<defs>
<clipPath id="clip0_130_41">
<rect width="35" height="32" fill="white"/>
</clipPath>
</defs>
</svg>
