<svg width="208" height="179" viewBox="0 0 208 179" fill="none" xmlns="http://www.w3.org/2000/svg">
<path d="M68.4429 124.185L57.7573 144.032H91.7485C86.4057 134.014 80.1417 124.469 73.0487 115.774C65.4951 106.417 57.0204 97.9115 47.8087 90.2563C34.636 79.3878 19.9894 70.4094 4.05314 63.8883L20.1736 33.929C35.8335 40.8281 50.5722 49.6174 64.0213 60.1079C73.3251 67.2906 82.0762 75.3239 89.9982 84.1132C105.934 101.597 119.107 121.822 128.595 144.032C133.385 155.184 137.254 166.903 140.11 179H0L18.7919 144.032L43.4792 98.1951C52.6909 105.945 61.0735 114.64 68.4429 124.185Z" fill="url(#paint0_linear_538_112)"/>
<path d="M208 179H173.733C171.338 166.997 168.022 155.278 163.876 144.032C151.441 109.536 131.636 78.726 106.488 53.4921L93.9597 76.7413C85.9455 68.0465 77.1944 60.1077 67.8906 52.925L80.0501 30.4319L96.3548 0C105.843 6.80465 114.778 14.2709 123.345 22.3041C158.165 55.0042 184.787 96.7772 199.526 144.032C203.026 155.373 205.882 166.997 208 179Z" fill="url(#paint1_linear_538_112)"/>
<defs>
<linearGradient id="paint0_linear_538_112" x1="0" y1="33.929" x2="200.064" y2="122.778" gradientUnits="userSpaceOnUse">
<stop stop-color="#5051FF"/>
<stop offset="1" stop-color="#B942CC"/>
</linearGradient>
<linearGradient id="paint1_linear_538_112" x1="67.8906" y1="0" x2="279.942" y2="76.3225" gradientUnits="userSpaceOnUse">
<stop stop-color="#5051FF"/>
<stop offset="1" stop-color="#B942CC"/>
</linearGradient>
</defs>
</svg>
