<svg width="37" height="37" viewBox="0 0 37 37" fill="none" xmlns="http://www.w3.org/2000/svg">
<g clip-path="url(#clip0_130_47)">
<path fill-rule="evenodd" clip-rule="evenodd" d="M13.7337 1.37968C13.6286 1.6619 13.4017 2.25676 13.2295 2.70168L12.9164 3.51058L12.371 3.67312C11.4539 3.94632 10.8052 4.20723 9.88893 4.67163C9.4064 4.91616 8.98555 5.11625 8.95369 5.11625C8.92176 5.11625 8.35842 4.87733 7.70171 4.58532C7.045 4.29331 6.47811 4.0544 6.44194 4.0544C6.40569 4.0544 5.70033 4.73246 4.87435 5.56116L3.37252 7.06792L3.93752 8.3454L4.5026 9.62281L4.10218 10.3844C3.63804 11.2672 3.30162 12.0932 3.05344 12.9597L2.87781 13.5731L1.60102 14.0715L0.324219 14.5699V16.7537V18.9375L1.56364 19.4166C2.24532 19.6801 2.82803 19.9236 2.85859 19.9578C2.88916 19.992 2.95545 20.1907 3.00592 20.3992C3.16739 21.0663 3.61715 22.195 4.06412 23.0549L4.49829 23.8901L3.9314 25.1657L3.36443 26.4412L4.87027 27.952C5.69851 28.783 6.40229 29.4629 6.4343 29.4629C6.4663 29.4629 7.02684 29.224 7.67984 28.932C8.33292 28.6399 8.90292 28.4016 8.94658 28.4025C8.99016 28.4032 9.45248 28.6189 9.97383 28.8816C10.4952 29.1444 11.3294 29.4886 11.8276 29.6466C12.3259 29.8045 12.7793 29.9562 12.8352 29.9835C12.8911 30.0109 13.1519 30.5961 13.4148 31.284L13.8927 32.5347L15.2615 32.5554L16.6304 32.576V30.9012V29.2262L16.3682 28.8821C15.9776 28.3693 15.7863 27.7913 15.7414 26.9877L15.7027 26.295L15.1639 26.2424C12.9272 26.0245 10.7185 24.9459 9.19613 23.3282C6.85303 20.8386 6.02191 17.4186 6.94512 14.0661C7.16334 13.2737 7.90321 11.7934 8.44317 11.0689C9.90172 9.1119 12.0752 7.77511 14.4831 7.35424C15.3142 7.20892 16.7714 7.20816 17.6592 7.3525C21.5882 7.9912 24.7602 11.1577 25.4513 15.1309C25.5468 15.6799 25.568 16.1546 25.5416 17.1516L25.5071 18.4546L27.595 18.4789L29.6828 18.5031L30.1517 18.7202C30.4097 18.8396 30.6788 19.0018 30.7499 19.0805C30.9127 19.2609 30.9813 19.2595 31.4972 19.066L31.9173 18.9085L31.8972 16.7453L31.8772 14.5821L30.5908 14.0894L29.3045 13.5966L28.9728 12.5692C28.7904 12.004 28.4215 11.1056 28.1529 10.5726L27.6648 9.60347L28.2009 8.39212C28.4958 7.72589 28.737 7.15113 28.737 7.11487C28.737 7.07854 28.0581 6.36908 27.2284 5.53818L25.7199 4.02747L24.467 4.58305L23.214 5.1387L22.2111 4.63857C21.2883 4.17848 20.2987 3.7947 19.5434 3.60417L19.2406 3.5278L18.7397 2.21725L18.2387 0.906775L16.0818 0.886676L13.9247 0.866577L13.7337 1.37968ZM19.7327 12.2904C19.5714 12.3601 18.5204 13.3525 17.0452 14.8281L14.6224 17.2513L13.7537 16.374C12.7935 15.4044 12.4356 15.1517 11.9229 15.0812C11.2443 14.988 10.511 15.4104 10.1692 16.0912C9.99804 16.4322 10.0113 17.1291 10.1963 17.5121C10.2872 17.7002 10.9586 18.4325 11.9177 19.3894C13.159 20.6279 13.5778 20.9992 13.9064 21.1521C14.389 21.3768 14.9071 21.4053 15.3275 21.2302C15.6705 21.0875 21.7138 15.0787 21.9262 14.6693C22.3763 13.8017 22.0109 12.7109 21.1368 12.313C20.7628 12.1427 20.0989 12.132 19.7327 12.2904ZM24.197 19.6712C23.4084 19.8387 22.9107 20.4423 22.9107 21.2311V21.5749H23.5917C24.2583 21.5749 24.2727 21.5711 24.2727 21.3945C24.2727 21.0495 24.3412 21.0405 26.8166 21.0618L29.1532 21.0819L29.1769 21.3284L29.2006 21.5749H29.9251H30.6497L30.6075 21.108C30.5555 20.5339 30.2827 20.1058 29.793 19.8304L29.4558 19.6408L26.9588 19.6278C25.5855 19.6208 24.3427 19.6403 24.197 19.6712ZM17.2587 22.8609C16.8766 23.0944 16.8403 23.3422 16.8694 25.5208C16.8938 27.3433 16.9049 27.4726 17.0654 27.7993C17.5238 28.7316 18.7594 29.4613 20.5917 29.8817C21.2509 30.033 23.0783 30.2945 23.4874 30.296C23.7904 30.2972 23.8007 30.2889 23.8453 30.009C23.9185 29.5505 24.3227 28.8233 24.6962 28.4782C25.9084 27.3582 27.7623 27.3939 28.8945 28.559C29.2758 28.9515 29.5964 29.5415 29.6844 30.0128C29.7332 30.274 29.7581 30.2972 29.99 30.2972C30.3797 30.2972 31.8919 30.0866 32.7022 29.9195C34.6697 29.5137 35.9912 28.7739 36.428 27.8337C36.6001 27.4632 36.6049 27.3957 36.6056 25.3214L36.6063 23.1898L36.4236 22.9921C36.3231 22.8834 36.1614 22.7749 36.0642 22.7509C35.967 22.727 35.2576 22.717 34.4877 22.7289L33.0878 22.7505L33.05 24.3053C33.0225 25.4347 32.9833 25.9121 32.9066 26.0498C32.6548 26.5023 32.3365 26.8127 31.9002 27.0312L31.4369 27.2633H26.8089C21.674 27.2633 21.776 27.2724 21.1838 26.7643C21.015 26.6195 20.7812 26.3056 20.6642 26.0668C20.4569 25.6436 20.4509 25.5956 20.4269 24.1726L20.4021 22.7126L18.9514 22.7129C17.6468 22.7131 17.4762 22.728 17.2587 22.8609ZM21.6244 24.1055C21.6244 25.4032 21.6352 25.5122 21.7823 25.6998C22.1258 26.1374 21.9882 26.1256 26.7848 26.1253C31.0266 26.1251 31.2055 26.1194 31.4384 25.977C31.8685 25.7141 31.915 25.5256 31.915 24.0437V22.7126H26.7697H21.6244V24.1055ZM26.3535 28.8512C25.8076 28.9844 25.2814 29.4289 25.071 29.9345C25.0065 30.0896 24.9537 30.4157 24.9537 30.6591C24.9537 31.917 26.1117 32.7677 27.3284 32.4035C27.7532 32.2764 28.3937 31.6444 28.5023 31.2453C28.7865 30.2006 28.2545 29.1873 27.2667 28.8918C26.8653 28.7718 26.7076 28.7648 26.3535 28.8512ZM17.7807 32.8854C17.803 35.6264 17.8043 35.6463 17.98 35.9295C18.0773 36.0862 18.3156 36.3081 18.5097 36.4225L18.8625 36.6304H26.7697C34.0672 36.6304 34.6949 36.6204 34.9116 36.5015C35.2454 36.3182 35.601 35.8863 35.6938 35.5516C35.8157 35.1115 35.8024 30.1177 35.6794 30.1678C34.6152 30.6016 34.2404 30.7304 33.529 30.9069C32.8188 31.0832 31.2799 31.332 29.9754 31.4815C29.6766 31.5158 29.6518 31.5391 29.4244 32.0021C29.1429 32.5755 28.5871 33.1125 27.9803 33.3978C27.6168 33.5687 27.4638 33.5936 26.7697 33.595C26.0631 33.5964 25.9271 33.5739 25.5399 33.392C24.9479 33.1139 24.3408 32.5219 24.0772 31.9656C23.8763 31.5416 23.8462 31.5133 23.5576 31.4781C20.5433 31.1107 19.4161 30.852 17.8564 30.1695C17.7768 30.1347 17.7625 30.647 17.7807 32.8854Z" fill="#6610F2"/>
</g>
<defs>
<clipPath id="clip0_130_47">
<rect width="37" height="37" fill="white"/>
</clipPath>
</defs>
</svg>
