<svg width="35" height="36" viewBox="0 0 35 36" fill="none" xmlns="http://www.w3.org/2000/svg">
<g clip-path="url(#clip0_130_43)">
<path d="M30.4133 18.0076C30.4133 17.6102 30.396 17.2301 30.3615 16.8328L33.575 14.3967C34.2661 13.8784 34.4562 12.9108 34.0242 12.1506L30.7934 6.5701C30.5862 6.20414 30.2512 5.92764 29.8525 5.7937C29.4539 5.65976 29.0199 5.67784 28.6337 5.84446L24.9191 7.41668C24.2799 6.96748 23.6061 6.5701 22.8977 6.24184L22.3967 2.2508C22.293 1.38694 21.5501 0.730408 20.6862 0.730408H14.2418C13.3607 0.730408 12.6178 1.38694 12.5141 2.2508L12.0131 6.24184C11.3047 6.5701 10.6309 6.96748 9.99164 7.41668L6.27704 5.84446C5.48229 5.49892 4.54932 5.80991 4.11739 6.5701L0.886551 12.1679C0.454621 12.9281 0.644671 13.8784 1.33576 14.414L4.54932 16.85C4.4777 17.6259 4.4777 18.4066 4.54932 19.1825L1.33576 21.6185C0.644671 22.1369 0.454621 23.1044 0.886551 23.8646L4.11739 29.4451C4.54932 30.2053 5.48229 30.5163 6.27704 30.1708L9.99164 28.5985C10.6309 29.0477 11.3047 29.4451 12.0131 29.7734L12.5141 33.7644C12.6178 34.6283 13.3607 35.2848 14.2246 35.2848H20.669C21.5328 35.2848 22.2757 34.6283 22.3794 33.7644L22.8804 29.7734C23.5888 29.4451 24.2626 29.0477 24.9019 28.5985L28.6165 30.1708C29.4112 30.5163 30.3442 30.2053 30.7761 29.4451L34.007 23.8646C34.4389 23.1044 34.2488 22.1541 33.5577 21.6185L30.3442 19.1825C30.396 18.7851 30.4133 18.405 30.4133 18.0076ZM17.5245 24.0546C14.19 24.0546 11.4775 21.3421 11.4775 18.0076C11.4775 14.6731 14.19 11.9606 17.5245 11.9606C20.859 11.9606 23.5715 14.6731 23.5715 18.0076C23.5715 21.3421 20.859 24.0546 17.5245 24.0546Z" fill="#6610F2"/>
</g>
<defs>
<clipPath id="clip0_130_43">
<rect width="35" height="36" fill="white"/>
</clipPath>
</defs>
</svg>
