<svg width="408" height="364" viewBox="0 0 408 364" fill="none" xmlns="http://www.w3.org/2000/svg">
<path d="M395.311 263.134C388.659 248.004 375.883 235.377 360.537 229.164C344.554 222.692 326.2 225.046 309.364 222.88C294.742 220.997 284.193 214.47 275.46 202.864C267.095 191.744 259.593 179.429 245.917 174.284C235.109 170.219 222.822 171.348 212.08 175.582C192.288 183.387 177.337 199.98 164.746 216.512C153.25 231.607 143.875 248.134 122.612 248.672C101.335 249.21 81.0791 237.074 59.6588 240.29C31.3467 244.54 7.76524 268.111 2.82484 296.169C-1.80644 322.466 9.81315 347.974 29.7762 362.958H372.905C398.06 336.274 411.261 299.412 395.311 263.134Z" fill="#F7F0E3"/>
<path d="M85.128 362.961H86.0719C92.6269 355.754 97.7633 347.013 101.026 337.309C106.308 321.602 106.087 305.117 100.399 290.892C97.5231 283.702 93.3749 277.003 89.3591 270.523C85.2881 263.951 81.0791 257.156 78.2225 249.875C77.0412 246.864 76.169 243.632 75.6446 240.334C75.4073 240.303 75.1699 240.279 74.9353 240.248C75.4625 243.665 76.3595 247.013 77.5821 250.126C80.4608 257.465 84.6891 264.288 88.7767 270.884C92.7759 277.337 96.9104 284.014 99.7615 291.145C105.389 305.219 105.607 321.533 100.374 337.088C97.0677 346.911 91.8237 355.738 85.128 362.961Z" fill="white"/>
<path d="M371.246 333.034C378.317 334.541 385.129 335.891 391.717 336.741C391.83 336.523 391.94 336.305 392.051 336.087C385.408 335.242 378.53 333.881 371.389 332.358C360.515 330.042 348.746 327.533 337.072 327.533C329.843 327.533 322.653 328.494 315.737 331.058C313.118 332.029 310.589 333.26 308.185 334.729C301.94 332.068 295.661 329.162 289.442 325.971C293.955 322.571 298.517 319.242 303.126 316.024C337.345 292.131 368.925 278.585 399.434 274.74C399.373 274.516 399.31 274.293 399.246 274.069C368.654 277.944 337.008 291.526 302.734 315.458C298.026 318.745 293.37 322.149 288.763 325.621C281.77 322.008 274.858 318.036 268.168 313.653C256.035 305.704 241.606 294.358 229.004 279.28C277.842 273.802 327.563 266.899 368.169 239.76C369.711 238.73 371.42 237.513 373.189 236.136C372.993 235.998 372.794 235.86 372.598 235.722C370.904 237.036 369.267 238.195 367.788 239.186C327.194 266.317 277.378 273.167 228.479 278.645C219.573 267.873 211.616 255.221 206.088 240.574C197.474 217.757 197.929 195.368 207.335 179.142C207.744 178.438 208.174 177.743 208.618 177.058C208.227 177.238 207.837 177.425 207.448 177.613C207.205 178.005 206.968 178.399 206.739 178.797C197.228 195.202 196.756 217.807 205.442 240.817C210.942 255.384 218.828 267.986 227.66 278.736C224.828 279.054 221.996 279.366 219.175 279.678C208.994 280.801 198.462 281.963 188.239 283.279C184.507 283.76 180.712 284.32 176.934 285.024C168.839 267.937 159.946 251.269 148.45 236.972C148.285 237.135 148.119 237.295 147.954 237.458C159.35 251.644 168.187 268.191 176.235 285.156C159.764 288.297 143.77 294.204 135.23 307.948C127.254 320.785 127.262 338.529 135.252 360.686C135.528 361.454 135.812 362.207 136.102 362.958H136.842C136.525 362.138 136.21 361.307 135.904 360.452C127.988 338.502 127.96 320.959 135.818 308.31C144.255 294.728 160.164 288.902 176.545 285.799C179.404 291.844 182.164 297.941 184.907 303.999L185.205 304.658C194.736 325.695 204.592 345.995 217.495 362.961H218.356C205.334 345.965 195.423 325.543 185.832 304.374L185.534 303.714C182.813 297.709 180.075 291.664 177.243 285.67C180.947 284.985 184.67 284.436 188.33 283.967C198.547 282.65 209.074 281.488 219.256 280.365C222.228 280.036 225.209 279.708 228.19 279.374C240.913 294.687 255.527 306.19 267.798 314.23C274.414 318.566 281.248 322.499 288.162 326.082C276.423 334.96 265.008 344.3 253.86 353.419C249.999 356.577 246.097 359.767 242.161 362.958H243.254C246.966 359.947 250.651 356.936 254.296 353.955C265.521 344.772 277.02 335.363 288.841 326.435C295.026 329.617 301.269 332.518 307.482 335.176C298.984 340.58 292.056 348.951 287.869 359.113C287.345 360.386 286.887 361.672 286.464 362.961H287.19C287.59 361.76 288.018 360.562 288.507 359.375C292.705 349.186 299.69 340.823 308.254 335.504C325.62 342.882 342.685 348.357 357.352 352.696L357.904 352.859C364.084 354.686 370.404 356.56 375.996 359.566C376.153 359.386 376.311 359.21 376.465 359.03C370.782 355.948 364.371 354.049 358.1 352.197L357.548 352.034C343.033 347.739 326.161 342.33 308.983 335.063C311.221 333.73 313.565 332.606 315.988 331.706C333.881 325.074 353.734 329.302 371.246 333.034Z" fill="white"/>
<path d="M31.5067 288.339C34.5537 300.814 33.1958 314.285 27.7751 325.3C24.2258 332.515 19.1005 339.048 12.7883 344.656C12.9153 344.852 13.0423 345.046 13.1692 345.239C19.5835 339.556 24.7916 332.929 28.3934 325.604C33.883 314.445 35.2602 300.803 32.1746 288.173C29.7651 278.306 24.9185 269.949 18.22 263.901C18.071 264.078 17.9219 264.255 17.7757 264.431C24.361 270.388 29.1303 278.618 31.5067 288.339Z" fill="white"/>
<path d="M187.673 130.315C193.684 136.456 196.378 146.806 193.063 156.344C189.854 165.582 182.818 173.233 174.367 178.154C167.567 182.112 158.696 184.295 152.008 180.149C147.01 177.053 144.418 170.975 144.275 165.099C144.131 159.22 146.108 153.493 148.55 148.144C151.995 140.607 156.629 133.296 163.534 128.711C173.051 122.391 181.894 124.408 187.673 130.315Z" fill="#F7F0E3"/>
<path d="M107.995 22.6196H58.2207V0.38501H107.995V22.6196ZM59.2557 21.5846H106.96V1.41726H59.2557V21.5846Z" fill="#E9DDCA"/>
<path d="M75.6142 43.8826H25.8403V21.6481H75.6142V43.8826ZM26.8753 42.8476H74.5792V22.6831H26.8753V42.8476Z" fill="#E9DDCA"/>
<path d="M391.198 67.5772C387.974 56.8601 382.305 47.0207 374.191 38.0258C366.06 29.031 354.97 21.6038 340.922 15.7306C326.874 9.85729 309.025 6.92065 287.375 6.92065C270.103 6.92065 252.503 9.25009 234.571 13.909C216.623 18.5844 201.053 25.2332 187.85 33.8748L205.039 81.0653L195.826 88.5283L209.187 92.4558C222.374 85.553 234.391 80.5409 245.233 77.4193C256.057 74.3143 267.561 72.7605 279.758 72.7605C291.937 72.7605 301.161 75.6971 307.424 81.5704C313.686 87.4602 316.811 94.5313 316.811 102.836C316.811 112.86 313.587 121.756 307.175 129.536C300.731 137.317 293.624 145.18 285.838 153.129C280.434 158.649 275.179 164.351 270.103 170.224C265.03 176.114 260.534 182.41 256.651 189.161C252.751 195.895 249.627 203.151 247.264 210.932C244.885 218.712 243.712 227.436 243.712 237.107C243.712 240.229 243.778 243.941 243.96 248.263C243.991 249.061 244.032 249.837 244.079 250.604H231.449L245.233 259.924H312.251C311.903 257.849 311.738 255.434 311.738 252.668C311.738 249.9 311.738 247.824 311.738 246.442C311.738 240.568 312.927 234.781 315.29 229.076C317.652 223.371 320.628 217.936 324.183 212.739C327.735 207.559 331.704 202.629 336.114 197.973C340.511 193.298 344.742 188.893 348.807 184.742C354.211 179.222 359.798 173.351 365.549 167.122C371.301 160.896 376.391 154.346 380.787 147.427C385.184 140.507 388.819 132.997 391.695 124.864C394.571 116.747 396.025 107.851 396.025 98.1635C396.023 88.4869 394.402 78.2942 391.198 67.5772Z" fill="#E49B31"/>
<path d="M265.566 69.465C253.513 69.465 242.144 70.9665 231.447 73.9721C220.732 76.9943 208.859 81.8436 195.823 88.5256L174.737 31.8324C187.786 23.4696 203.173 17.0333 220.912 12.5097C238.634 8.0026 256.027 5.74768 273.095 5.74768C294.49 5.74768 312.132 8.59048 326.015 14.2733C339.898 19.9562 350.858 27.1432 358.895 35.8482C366.916 44.5533 372.516 54.0753 375.701 64.4474C378.869 74.8194 380.47 84.6837 380.47 94.0428C380.47 103.419 379.032 112.027 376.192 119.882C373.349 127.753 369.756 135.023 365.411 141.719C361.067 148.415 356.036 154.752 350.353 160.78C344.67 166.807 339.147 172.49 333.807 177.831C329.788 181.849 325.607 186.111 321.262 190.637C316.902 195.144 312.982 199.914 309.469 204.929C305.958 209.96 303.016 215.218 300.681 220.738C298.346 226.258 297.17 231.861 297.17 237.544C297.17 238.882 297.17 240.891 297.17 243.571C297.17 246.251 297.333 248.586 297.675 250.596H231.444C230.757 247.248 230.351 243.491 230.185 239.31C230.006 235.129 229.94 231.535 229.94 228.513C229.94 219.154 231.099 210.711 233.45 203.179C235.785 195.649 238.874 188.625 242.727 182.109C246.566 175.576 251.007 169.485 256.022 163.783C261.036 158.1 266.231 152.577 271.571 147.236C279.264 139.544 286.288 131.932 292.658 124.403C298.995 116.874 302.18 108.265 302.18 98.5637C302.18 90.5266 299.094 83.6846 292.903 77.9852C286.718 72.3078 277.605 69.465 265.566 69.465Z" fill="#FBC343"/>
<path d="M316.833 324.972C316.833 337.055 312.922 346.379 305.097 352.956C297.275 359.547 288.432 362.828 278.56 362.828C268.673 362.828 259.833 359.547 252.011 352.956C244.2 346.379 240.29 337.055 240.29 324.972C240.29 312.903 244.2 303.579 252.011 296.988C264.053 286.826 281.869 284.563 295.967 291.695C308.478 298.026 316.833 310.877 316.833 324.972Z" fill="#E49B31"/>
<path d="M303.723 324.972C303.723 337.055 299.812 346.379 291.987 352.956C284.165 359.547 275.322 362.828 265.45 362.828C255.563 362.828 246.723 359.547 238.901 352.956C231.09 346.379 227.179 337.055 227.179 324.972C227.179 312.903 231.09 303.579 238.901 296.988C246.723 290.411 255.566 287.116 265.45 287.116C275.322 287.116 284.162 290.411 291.987 296.988C299.812 303.582 303.723 312.905 303.723 324.972Z" fill="#FBC343"/>
<path d="M105.322 153.673C106.056 149.755 103.475 145.984 99.5576 145.25C95.6397 144.515 91.8684 147.096 91.1341 151.014C90.3999 154.932 92.9808 158.703 96.8987 159.438C100.817 160.172 104.588 157.591 105.322 153.673Z" fill="#D3DFFF"/>
<path d="M108.772 167.239C109.185 165.035 107.721 162.911 105.502 162.495C103.283 162.08 101.15 163.529 100.737 165.733C100.324 167.937 101.788 170.061 104.007 170.477C106.226 170.892 108.359 169.443 108.772 167.239Z" fill="#D3DFFF"/>
<path d="M100.508 136.106C111.605 125.009 111.605 107.016 100.508 95.9191C89.4105 84.8217 71.4181 84.8217 60.3207 95.9191C49.2233 107.016 49.2233 125.009 60.3207 136.106C71.4181 147.204 89.4105 147.204 100.508 136.106Z" fill="#D3DFFF"/>
<path d="M69.5062 119.592C71.4833 119.592 73.086 117.989 73.086 116.012C73.086 114.035 71.4833 112.433 69.5062 112.433C67.5292 112.433 65.9265 114.035 65.9265 116.012C65.9265 117.989 67.5292 119.592 69.5062 119.592Z" fill="white"/>
<path d="M80.4166 119.592C82.3937 119.592 83.9964 117.989 83.9964 116.012C83.9964 114.035 82.3937 112.433 80.4166 112.433C78.4396 112.433 76.8369 114.035 76.8369 116.012C76.8369 117.989 78.4396 119.592 80.4166 119.592Z" fill="white"/>
<path d="M91.3295 119.592C93.3065 119.592 94.9092 117.989 94.9092 116.012C94.9092 114.035 93.3065 112.433 91.3295 112.433C89.3525 112.433 87.7498 114.035 87.7498 116.012C87.7498 117.989 89.3525 119.592 91.3295 119.592Z" fill="white"/>
<path d="M60.0618 348.603L62.7169 358.84C63.4096 361.509 65.9902 363.314 68.8468 363.118C77.5519 362.527 95.6409 360.394 106.024 352.74L103.074 337.988C88.7989 337.182 75.4515 337.977 63.8899 341.866C60.9919 342.843 59.3193 345.744 60.0618 348.603Z" fill="#102048"/>
<path d="M76.6963 356.751C76.5445 356.751 76.4065 356.651 76.3651 356.499L72.7992 343.734C72.7467 343.55 72.8544 343.362 73.0393 343.309C73.2242 343.26 73.4146 343.365 73.4643 343.55L77.0302 356.315C77.0827 356.499 76.975 356.687 76.7901 356.74C76.7598 356.748 76.7294 356.751 76.6963 356.751Z" fill="white"/>
<path d="M84.4021 355.026C84.2503 355.026 84.1123 354.926 84.0709 354.774L80.505 342.009C80.4525 341.825 80.5602 341.637 80.7451 341.584C80.93 341.532 81.1205 341.64 81.1701 341.825L84.7361 354.59C84.7885 354.775 84.6809 354.962 84.4959 355.015C84.4656 355.023 84.4325 355.026 84.4021 355.026Z" fill="white"/>
<path d="M93.35 293.271L60.1748 303.118L84.8133 336.876L120.185 339.688L168.974 319.06L150.432 291.162L93.35 293.271Z" fill="#FBC343"/>
<path d="M134.253 297.96C207.112 276.393 218.82 340.784 105.144 352.506C101.128 347.988 96.4358 340.149 94.5728 333.594L154.603 305.854L134.253 297.96Z" fill="#FBC343"/>
<path d="M137.347 344.11C133.939 343.02 130.673 340.864 130.673 340.864L118.966 344.538L121.648 357.275L133.812 359.745C137.518 352.967 137.734 347.4 137.347 344.11Z" fill="#F9B384"/>
<path d="M94.8321 334.041L94.3132 333.147C106.838 325.869 138.915 308.384 166.247 303.226L166.44 304.244C139.263 309.37 107.307 326.791 94.8321 334.041Z" fill="#E49B31"/>
<path d="M93.3501 293.271C25.5342 280.376 7.9695 345.551 121.648 357.272C125.664 352.754 128.811 347.416 130.674 340.861C113.211 329.178 93.6868 318.072 72.2913 307.493L93.3501 293.271Z" fill="#FBC343"/>
<path d="M130.397 341.297C127.171 339.244 123.809 337.075 120.252 334.776C102.386 323.241 82.1389 310.167 64.9358 302.713L65.347 301.763C82.6274 309.251 102.913 322.35 120.812 333.906C124.37 336.202 127.729 338.372 130.952 340.425L130.397 341.297Z" fill="#E49B31"/>
<path d="M43.5957 325.585L42.6904 325.085C45.2351 320.476 49.3144 317.368 54.8096 315.847L55.0856 316.844C49.7919 318.309 46.0355 321.169 43.5957 325.585Z" fill="#E49B31"/>
<path d="M185.137 321.663C182.697 317.247 178.938 314.387 173.647 312.922L173.923 311.925C179.418 313.446 183.497 316.557 186.042 321.163L185.137 321.663Z" fill="#E49B31"/>
<path d="M115.298 356.701L114.542 355.994C119.968 350.185 123.299 344.052 124.729 337.243L125.742 337.455C124.271 344.452 120.856 350.748 115.298 356.701Z" fill="#E49B31"/>
<path d="M171.168 340.315C162.48 334.947 145.636 344.223 141.407 344.692C140.174 344.83 138.749 344.56 137.347 344.11C137.734 347.402 137.518 352.967 133.812 359.745L135.879 360.165C135.879 360.165 150.162 365.4 165.314 362.353C179.299 359.538 177.999 344.535 171.168 340.315Z" fill="#102048"/>
<path d="M159.325 357.874C159.292 357.874 159.256 357.868 159.22 357.857C159.038 357.799 158.939 357.606 158.994 357.424C160.026 354.156 160.476 347.725 157.487 343.406C157.379 343.249 157.418 343.033 157.575 342.926C157.733 342.818 157.948 342.857 158.056 343.014C161.186 347.538 160.727 354.234 159.654 357.631C159.607 357.777 159.472 357.874 159.325 357.874Z" fill="white"/>
<path d="M152.511 359.166C152.478 359.166 152.442 359.16 152.406 359.149C152.224 359.091 152.124 358.898 152.18 358.716C153.212 355.448 153.662 349.017 150.673 344.698C150.565 344.54 150.604 344.325 150.761 344.217C150.918 344.11 151.134 344.148 151.241 344.306C154.371 348.829 153.913 355.525 152.839 358.923C152.795 359.072 152.657 359.166 152.511 359.166Z" fill="white"/>
<path d="M81.3524 209.24C81.3524 209.24 98.4313 194.717 97.7992 191.957C97.3466 189.983 92.5083 192.876 92.5083 192.876C92.5083 192.876 99.2924 184.825 98.9474 183.848C98.3319 182.101 93.6371 185.357 93.6371 185.357C93.6371 185.357 96.8084 180.792 95.2931 180.047C93.7779 179.302 90.4714 182.117 90.4714 182.117C90.4714 182.117 92.4034 179.583 91.4954 178.918C90.5873 178.253 86.6737 180.988 86.6737 180.988C86.6737 180.988 88.0785 177.792 85.0949 179.004C82.1114 180.215 61.1851 199.42 61.1851 199.42L81.3524 209.24Z" fill="#F9B384"/>
<path d="M88.3406 192.014C88.2578 192.014 88.175 191.984 88.1088 191.923C85.1777 189.243 83.8832 188.595 80.6513 187.598C80.4691 187.543 80.367 187.35 80.4222 187.168C80.4774 186.986 80.6706 186.884 80.8528 186.939C84.2034 187.968 85.542 188.642 88.5752 191.413C88.716 191.542 88.727 191.761 88.5973 191.901C88.5283 191.976 88.4345 192.014 88.3406 192.014Z" fill="#E28B6D"/>
<path d="M83.1961 199.891C83.1795 199.891 83.1629 199.891 83.1491 199.889C82.9615 199.861 82.829 199.687 82.8538 199.5C83.1905 197.098 83.9468 195.597 85.1639 194.912C86.2072 194.327 87.5624 194.385 89.1963 195.092C89.3702 195.166 89.453 195.371 89.3757 195.544C89.3012 195.718 89.0969 195.801 88.9231 195.724C87.4989 195.108 86.348 195.037 85.5034 195.514C84.4988 196.08 83.8364 197.452 83.5383 199.596C83.5135 199.767 83.3644 199.891 83.1961 199.891Z" fill="#E28B6D"/>
<path d="M82.3902 185.374C82.2991 185.374 82.208 185.338 82.139 185.266C82.0093 185.128 82.0148 184.91 82.1528 184.778L86.4391 180.74C86.5771 180.607 86.7952 180.616 86.9276 180.754C87.0574 180.892 87.0518 181.11 86.9138 181.242L82.6275 185.28C82.5613 185.341 82.4758 185.374 82.3902 185.374Z" fill="#E28B6D"/>
<path d="M86.359 186.754C86.2735 186.754 86.1879 186.721 86.1189 186.657C85.9809 186.525 85.9782 186.307 86.1079 186.169L90.2258 181.88C90.3583 181.742 90.5763 181.736 90.7143 181.869C90.8523 182.001 90.8551 182.219 90.7254 182.357L86.6075 186.646C86.5385 186.718 86.4474 186.754 86.359 186.754Z" fill="#E28B6D"/>
<path d="M90.4106 189.169C90.3251 189.169 90.2423 189.138 90.176 189.075C90.038 188.945 90.0297 188.727 90.1595 188.586L93.3887 185.123C93.5184 184.985 93.7364 184.976 93.8772 185.106C94.0152 185.236 94.0235 185.454 93.8937 185.595L90.6645 189.058C90.5955 189.13 90.5045 189.169 90.4106 189.169Z" fill="#E28B6D"/>
<path d="M145.87 306.381L83.4251 308.796L76.5251 251.871C76.5251 251.871 97.4294 232.043 105.472 224.74L119.051 224.044C161.177 243.19 154.28 267.106 145.87 306.381Z" fill="#3A6BEA"/>
<path d="M119.051 224.044C119.051 224.044 167.246 228.165 182.44 261.186C197.308 293.497 136.21 305.001 136.21 305.001L119.051 224.044Z" fill="#3A6BEA"/>
<path d="M63.9615 231.118L83.8777 206.883L65.2532 195.597C57.4838 200.998 42.4611 213.233 29.7292 227.089C26.9196 230.147 24.7226 233.718 23.6186 237.651C22.6747 241.007 22.5036 244.322 23.0335 247.568C24.4162 256.03 31.0706 262.557 39.955 263.598C47.5423 264.487 76.525 262.218 99.985 255.318L106.885 228.687C103.338 226.677 76.9887 226.327 63.9615 231.118Z" fill="#3A6BEA"/>
<g opacity="0.8">
<path d="M159.27 237.146C159.375 237.121 159.477 237.099 159.582 237.074C159.364 236.945 159.146 236.82 158.928 236.693C155.395 237.508 151.752 238.338 148.158 238.772C146 239.031 138.785 239.509 136.679 234.703C135.63 232.313 136.425 229.653 137.609 227.787C137.435 227.737 137.264 227.687 137.093 227.638C135.879 229.614 135.098 232.388 136.204 234.91C138.454 240.044 145.972 239.558 148.222 239.285C151.917 238.841 155.657 237.98 159.27 237.146Z" fill="white"/>
<path d="M181.764 274.387C179.462 273.498 177.083 272.576 174.582 272.813C170.197 273.227 166.443 277.566 166.214 282.482C166.059 285.835 167.34 289.349 169.78 292.437C169.926 292.346 170.072 292.252 170.219 292.158C167.831 289.155 166.578 285.747 166.73 282.504C166.945 277.834 170.489 273.716 174.629 273.327C177.006 273.106 179.227 273.962 181.576 274.867C182.415 275.19 183.268 275.518 184.135 275.794C184.179 275.629 184.223 275.46 184.264 275.292C183.417 275.024 182.583 274.704 181.764 274.387Z" fill="white"/>
<path d="M60.1169 257.929C57.1085 255.439 52.4331 254.774 47.2912 256.105C42.7096 257.289 38.7794 259.637 36.0801 262.742C36.2567 262.8 36.4306 262.864 36.61 262.916C39.2375 259.969 43.0215 257.741 47.4209 256.604C52.3972 255.315 56.907 255.944 59.7857 258.326C61.1547 259.458 62.1234 260.929 62.8272 262.513C63.0039 262.494 63.1833 262.472 63.3627 262.452C62.6258 260.75 61.599 259.157 60.1169 257.929Z" fill="white"/>
<path d="M32.9143 223.702C38.553 222.3 44.0537 220.332 49.1293 217.409C51.0475 216.305 53.2113 214.898 54.7349 212.83C56.355 210.631 56.8932 208.012 56.1756 205.826C55.8941 204.967 55.3945 204.214 54.7708 203.612C54.6383 203.72 54.5058 203.83 54.3733 203.938C54.9557 204.492 55.4221 205.191 55.6843 205.988C56.3495 208.017 55.8416 210.46 54.3209 212.524C52.8553 214.514 50.7439 215.886 48.8726 216.962C44.0868 219.719 38.909 221.627 33.5905 223.004C33.3642 223.236 33.1406 223.47 32.9143 223.702Z" fill="white"/>
</g>
<path d="M123.462 211.387L123.453 212.27L123.313 225.996L123.296 227.483C123.268 229.81 122.316 231.919 120.776 233.45C119.244 234.971 117.136 235.926 114.801 235.943C110.095 235.968 106.245 232.189 106.201 227.475L106.035 210.512L123.462 211.387Z" fill="#F9B384"/>
<path d="M123.453 212.27L123.312 225.996C115.684 222.891 112.543 214.633 112.543 214.633L123.453 212.27Z" fill="#102048"/>
<path d="M126.47 188.319C129.202 191.601 137.187 210.189 129.095 216.532C119.989 223.669 106.131 211.939 106.131 211.939L104.271 190.287L116.299 187.116L126.47 188.319Z" fill="#F9B384"/>
<path d="M98.1441 187.127C98.1441 187.127 71.4632 201.043 93.2175 241.154C96.0106 246.307 102.201 248.553 107.495 246.042C113.175 243.345 115.325 236.406 112.239 230.928C108.682 224.607 105.246 216.465 106.714 210.41L98.1441 187.127Z" fill="#102048"/>
<path d="M105.765 198.817C108.584 195.999 108.584 191.429 105.765 188.61C102.947 185.792 98.377 185.792 95.5585 188.61C92.74 191.429 92.74 195.999 95.5585 198.817C98.377 201.636 102.947 201.636 105.765 198.817Z" fill="#FBC343"/>
<path d="M109.543 202.384C108.762 197.882 108.287 194.794 112.838 192.473C112.838 192.473 128.877 195.39 131.938 189.337C134.998 183.287 130.334 173.738 120.566 180.37C95.5608 175.485 92.2074 198.887 99.7891 206.687L107.272 205.539C108.778 205.309 109.802 203.885 109.543 202.384Z" fill="#102048"/>
<path d="M121.96 203.463C122.549 203.463 123.025 202.986 123.025 202.398C123.025 201.809 122.549 201.332 121.96 201.332C121.372 201.332 120.895 201.809 120.895 202.398C120.895 202.986 121.372 203.463 121.96 203.463Z" fill="#102048"/>
<path d="M129.178 199.908C129.766 199.908 130.243 199.431 130.243 198.843C130.243 198.254 129.766 197.777 129.178 197.777C128.589 197.777 128.112 198.254 128.112 198.843C128.112 199.431 128.589 199.908 129.178 199.908Z" fill="#102048"/>
<path d="M128.438 205.679C128.364 205.679 128.289 205.652 128.231 205.596C128.11 205.481 128.104 205.29 128.22 205.169C128.648 204.719 129.117 204.087 128.918 203.626C128.714 203.148 127.85 202.944 127.453 202.944C126.603 202.944 126.194 201.432 126.12 201.128C126.081 200.965 126.18 200.802 126.343 200.764C126.506 200.722 126.669 200.824 126.708 200.987C126.862 201.628 127.215 202.342 127.453 202.342C127.861 202.342 129.106 202.536 129.473 203.391C129.735 204.001 129.462 204.741 128.656 205.588C128.598 205.649 128.518 205.679 128.438 205.679Z" fill="#102048"/>
<path d="M128.493 209.725C128.435 209.725 128.377 209.709 128.325 209.673C126.318 208.318 124.29 209.455 124.27 209.466C124.127 209.549 123.942 209.499 123.859 209.356C123.776 209.212 123.826 209.027 123.97 208.944C124.066 208.889 126.346 207.611 128.664 209.173C128.802 209.267 128.838 209.455 128.744 209.593C128.686 209.679 128.59 209.725 128.493 209.725Z" fill="#102048"/>
<path d="M121.494 197.78C122.101 198.923 121.044 199.152 119.805 199.809C118.565 200.466 117.299 200.709 117.009 200.162C116.719 199.618 117.489 198.644 118.728 197.984C119.968 197.325 121.025 196.897 121.494 197.78Z" fill="#102048"/>
<path d="M126.009 195.718C126.277 196.737 127.036 196.292 128.14 196.003C129.244 195.713 130.138 195.158 130.011 194.672C129.884 194.187 128.885 194.027 127.778 194.316C126.674 194.606 125.802 194.932 126.009 195.718Z" fill="#102048"/>
<path opacity="0.4" d="M119.182 209.684C120.459 208.507 120.539 206.518 119.362 205.241C118.185 203.965 116.196 203.885 114.92 205.062C113.643 206.239 113.563 208.228 114.74 209.504C115.917 210.781 117.906 210.861 119.182 209.684Z" fill="#EB5D60"/>
<path d="M108.931 210.324C110.368 208.462 109.817 205.629 107.702 203.997C105.586 202.365 102.707 202.551 101.27 204.413C99.833 206.275 100.383 209.108 102.499 210.74C104.614 212.373 107.494 212.186 108.931 210.324Z" fill="#F9B384"/>
<path d="M106.971 208.961C106.805 208.961 106.67 208.826 106.67 208.66C106.67 207.769 106.236 206.946 105.508 206.455C104.887 206.035 104.144 205.939 103.523 206.19C103.369 206.251 103.192 206.179 103.129 206.024C103.065 205.87 103.14 205.693 103.294 205.63C104.1 205.301 105.052 205.42 105.842 205.953C106.736 206.554 107.271 207.564 107.271 208.657C107.274 208.826 107.139 208.961 106.971 208.961Z" fill="#102048"/>
<path d="M63.7032 230.875L52.8108 242.658L53.3175 243.127L64.2099 231.344L63.7032 230.875Z" fill="#102048"/>
<path d="M140.449 281.527L140.248 280.867C148.177 278.449 155.875 275.56 162.849 266.838L163.388 267.269C156.292 276.142 148.489 279.076 140.449 281.527Z" fill="#102048"/>
<path d="M145.271 254.807H77.8138C75.3878 254.807 73.4199 256.935 73.4199 259.56V307.725C73.4199 310.35 75.3878 312.478 77.8138 312.478H145.274C147.7 312.478 149.668 310.35 149.668 307.725V259.56C149.665 256.933 147.697 254.807 145.271 254.807Z" fill="#D3DFFF"/>
<path d="M115.104 280.597C115.361 280.597 115.568 280.82 115.568 281.099V286.183C115.568 286.459 115.361 286.685 115.104 286.685H107.981C107.724 286.685 107.517 286.462 107.517 286.183V281.099C107.517 280.823 107.724 280.597 107.981 280.597H115.104ZM115.104 279.217H107.981C106.965 279.217 106.137 280.061 106.137 281.099V286.183C106.137 287.221 106.965 288.065 107.981 288.065H115.104C116.12 288.065 116.948 287.221 116.948 286.183V281.099C116.948 280.061 116.12 279.217 115.104 279.217Z" fill="#1F3C88"/>
<path d="M407.087 362.271H0.351807V363.651H407.087V362.271Z" fill="#102048"/>
</svg>
